<svg xmlns="http://www.w3.org/2000/svg" width="1800" height="1000" viewBox="0 0 1800 1000">
  <defs><linearGradient id="g" x1="0" y1="0" x2="1" y2="1"><stop offset="0" stop-color="#312e81"/><stop offset=".58" stop-color="#030008"/><stop offset="1" stop-color="#be185d"/></linearGradient><radialGradient id="r" cx="67%" cy="25%" r="38%"><stop offset="0" stop-color="#f0abfc" stop-opacity=".5"/><stop offset="1" stop-color="#f0abfc" stop-opacity="0"/></radialGradient></defs>
  <rect width="1800" height="1000" fill="url(#g)"/><rect width="1800" height="1000" fill="url(#r)"/>
  <path d="M0 720c260-80 435-75 650 15 245 104 454 104 690 0 170-74 320-95 460-58v323H0z" fill="#030008" opacity=".76"/>
  <path d="M1175 155c90 175 68 320-67 436 154-30 266-121 336-275 32 207-28 382-180 524 96-18 180-58 251-122-64 219-202 369-413 449 72-144 81-267 27-370-49 79-112 137-189 175 75-132 94-261 58-388-32-111 27-260 177-429z" fill="#fff" opacity=".16"/>
  <text x="130" y="230" fill="#fff" font-family="Arial, Helvetica, sans-serif" font-size="100" font-weight="800" letter-spacing="12">MOVING</text>
</svg>
