<?xml version="1.0" encoding="UTF-8"?>
<svg xmlns="http://www.w3.org/2000/svg" viewBox="0 0 1500 500">
  <defs>
    <linearGradient id="banner-bg" x1="0" y1="500" x2="1500" y2="0" gradientUnits="userSpaceOnUse">
      <stop offset="0" stop-color="#070711"/>
      <stop offset="0.45" stop-color="#12131C"/>
      <stop offset="0.72" stop-color="#1D4ED8"/>
      <stop offset="1" stop-color="#00D5FF"/>
    </linearGradient>
  </defs>
  <rect width="1500" height="500" fill="url(#banner-bg)"/>
  <path d="M0 390C220 322 383 430 584 356C788 281 886 104 1150 143C1284 163 1386 238 1500 188V500H0Z" fill="#fff" opacity="0.055"/>
  <path d="M984 0H1500V500H782Z" fill="#fff" opacity="0.07"/>
  <svg x="116" y="115" width="168" height="168" viewBox="0 0 96 96">
  <title id="banner-symbol-title">Ksubzone KSZ symbol</title>
  <desc id="banner-symbol-desc">A bold geometric K monogram with S and Z hidden in a stepped negative-space channel.</desc>
  <defs>
    <linearGradient id="banner-symbol-gradient" x1="10" y1="88" x2="88" y2="8" gradientUnits="userSpaceOnUse">
      <stop offset="0" stop-color="#1D4ED8"/>
      <stop offset="0.48" stop-color="#8B5CF6"/>
      <stop offset="1" stop-color="#00D5FF"/>
    </linearGradient>
    <filter id="banner-symbol-shadow" x="-18%" y="-18%" width="136%" height="136%">
      <feDropShadow dx="0" dy="10" stdDeviation="10" flood-color="#1D4ED8" flood-opacity="0.2"/>
    </filter>
    <mask id="banner-symbol-ksz-cut" maskUnits="userSpaceOnUse">
      <rect width="96" height="96" fill="#fff"/>
      <path d="M48 24H78L68 35H56L49 43H76V53H54L46 62H77L86 72H49L36 56L44 48L36 41Z" fill="#000"/>
    </mask>
  </defs>
  
  <g  mask="url(#banner-symbol-ksz-cut)">
    <path fill="#FFFFFF" d="M12 10H34V86H12Z"/>
    <path fill="#FFFFFF" d="M34 42L64 10H91L55 48Z"/>
    <path fill="#FFFFFF" d="M34 54L55 48L91 86H64Z"/>
  </g>
</svg>
  <text x="332" y="214" font-family="Inter, Arial, sans-serif" font-size="82" font-weight="840" fill="#fff" letter-spacing="-2">Ksubzone<tspan opacity="0.7" font-size="52">.com</tspan></text>
  <rect x="335" y="258" width="430" height="4" rx="2" fill="#00D5FF"/>
  <text x="332" y="318" font-family="Inter, Arial, sans-serif" font-size="27" font-weight="720" fill="#F7F8FC" letter-spacing="4">KOREAN ENTERTAINMENT SUBTITLES</text>
</svg>