<?xml version="1.0" encoding="UTF-8"?>
<svg xmlns="http://www.w3.org/2000/svg" viewBox="0 0 1200 1200">
  <defs>
    <radialGradient id="social-bg" cx="72%" cy="18%" r="92%">
      <stop offset="0" stop-color="#00D5FF"/>
      <stop offset="0.38" stop-color="#8B5CF6"/>
      <stop offset="1" stop-color="#070711"/>
    </radialGradient>
  </defs>
  <rect width="1200" height="1200" rx="260" fill="url(#social-bg)"/>
  <rect x="88" y="88" width="1024" height="1024" rx="210" fill="#fff" opacity="0.08"/>
  <svg x="285" y="248" width="630" height="704" viewBox="0 0 96 96">
  <title id="social-mark-title">Ksubzone KSZ symbol</title>
  <desc id="social-mark-desc">A bold geometric K monogram with S and Z hidden in a stepped negative-space channel.</desc>
  <defs>
    <linearGradient id="social-mark-gradient" x1="10" y1="88" x2="88" y2="8" gradientUnits="userSpaceOnUse">
      <stop offset="0" stop-color="#1D4ED8"/>
      <stop offset="0.48" stop-color="#8B5CF6"/>
      <stop offset="1" stop-color="#00D5FF"/>
    </linearGradient>
    <filter id="social-mark-shadow" x="-18%" y="-18%" width="136%" height="136%">
      <feDropShadow dx="0" dy="10" stdDeviation="10" flood-color="#1D4ED8" flood-opacity="0.2"/>
    </filter>
    <mask id="social-mark-ksz-cut" maskUnits="userSpaceOnUse">
      <rect width="96" height="96" fill="#fff"/>
      <path d="M48 24H78L68 35H56L49 43H76V53H54L46 62H77L86 72H49L36 56L44 48L36 41Z" fill="#000"/>
    </mask>
  </defs>
  
  <g filter="url(#social-mark-shadow)" mask="url(#social-mark-ksz-cut)">
    <path fill="#FFFFFF" d="M12 10H34V86H12Z"/>
    <path fill="#FFFFFF" d="M34 42L64 10H91L55 48Z"/>
    <path fill="#FFFFFF" d="M34 54L55 48L91 86H64Z"/>
  </g>
</svg>
</svg>