<?xml version="1.0" encoding="UTF-8"?>
<svg xmlns="http://www.w3.org/2000/svg" viewBox="0 0 96 96" role="img" aria-labelledby="favicon-title">
  <title id="favicon-title">Ksubzone favicon</title>
  <defs>
    <linearGradient id="favicon-bg" x1="0" y1="96" x2="96" y2="0" gradientUnits="userSpaceOnUse">
      <stop offset="0" stop-color="#070711"/>
      <stop offset="0.48" stop-color="#8B5CF6"/>
      <stop offset="1" stop-color="#00D5FF"/>
    </linearGradient>
  </defs>
  <rect width="96" height="96" rx="23" fill="url(#favicon-bg)"/>
  <svg x="19" y="15" width="58" height="66" viewBox="0 0 96 96">
  <defs>
    <linearGradient id="favicon-mark-gradient" x1="10" y1="88" x2="88" y2="8" gradientUnits="userSpaceOnUse">
      <stop offset="0" stop-color="#1D4ED8"/>
      <stop offset="0.48" stop-color="#8B5CF6"/>
      <stop offset="1" stop-color="#00D5FF"/>
    </linearGradient>
    <filter id="favicon-mark-shadow" x="-18%" y="-18%" width="136%" height="136%">
      <feDropShadow dx="0" dy="10" stdDeviation="10" flood-color="#1D4ED8" flood-opacity="0.2"/>
    </filter>
    <mask id="favicon-mark-ksz-cut" maskUnits="userSpaceOnUse">
      <rect width="96" height="96" fill="#fff"/>
      <path d="M48 24H78L68 35H56L49 43H76V53H54L46 62H77L86 72H49L36 56L44 48L36 41Z" fill="#000"/>
    </mask>
  </defs>
  
  <g  mask="url(#favicon-mark-ksz-cut)">
    <path fill="#FFFFFF" d="M12 10H34V86H12Z"/>
    <path fill="#FFFFFF" d="M34 42L64 10H91L55 48Z"/>
    <path fill="#FFFFFF" d="M34 54L55 48L91 86H64Z"/>
  </g>
</svg>
</svg>